<svg xmlns="http://www.w3.org/2000/svg" width="332" height="332" viewBox="0 0 332 332">
  <g id="Group_18254" data-name="Group 18254" transform="translate(-755 -371)">
    <circle id="Ellipse_175" data-name="Ellipse 175" cx="166" cy="166" r="166" transform="translate(755 371)" fill="none"/>
    <path id="Ellipse_175_-_Outline" data-name="Ellipse 175 - Outline" d="M166,7C78.327,7,7,78.327,7,166S78.327,325,166,325s159-71.327,159-159S253.673,7,166,7m0-7A166,166,0,1,1,0,166,166,166,0,0,1,166,0Z" transform="translate(755 371)" fill="#249ad5"/>
    <path id="Subtraction_10" data-name="Subtraction 10" d="M4573.08,12328a159.2,159.2,0,0,1-18.093-1.03c79.742-9.146,139.864-77.057,139.864-157.971s-60.122-148.826-139.847-157.97a158.562,158.562,0,0,1,49.9,2.2,156.465,156.465,0,0,1,56.472,23.924,159.025,159.025,0,0,1,66.418,99.8,161.634,161.634,0,0,1,0,64.086,158.8,158.8,0,0,1-93.246,114.463,156.124,156.124,0,0,1-29.645,9.263,158.249,158.249,0,0,1-31.822,3.232Z" transform="translate(-3651 -11632)" fill="rgba(117,117,122,0.18)"/>
    <circle id="Ellipse_176" data-name="Ellipse 176" cx="26" cy="26" r="26" transform="translate(934 433)" fill="rgba(117,117,122,0.18)"/>
    <path id="Ellipse_176_-_Outline" data-name="Ellipse 176 - Outline" d="M26,7A19,19,0,1,0,45,26,19,19,0,0,0,26,7m0-7A26,26,0,1,1,0,26,26,26,0,0,1,26,0Z" transform="translate(934 433)" fill="#249ad5"/>
    <circle id="Ellipse_178" data-name="Ellipse 178" cx="26" cy="26" r="26" transform="translate(802 511)" fill="rgba(117,117,122,0.18)"/>
    <path id="Ellipse_178_-_Outline" data-name="Ellipse 178 - Outline" d="M26,7A19,19,0,1,0,45,26,19,19,0,0,0,26,7m0-7A26,26,0,1,1,0,26,26,26,0,0,1,26,0Z" transform="translate(802 511)" fill="#249ad5"/>
    <circle id="Ellipse_181" data-name="Ellipse 181" cx="26" cy="26" r="26" transform="translate(945 583)" fill="rgba(117,117,122,0.18)"/>
    <path id="Ellipse_181_-_Outline" data-name="Ellipse 181 - Outline" d="M26,7A19,19,0,1,0,45,26,19,19,0,0,0,26,7m0-7A26,26,0,1,1,0,26,26,26,0,0,1,26,0Z" transform="translate(945 583)" fill="#249ad5"/>
    <circle id="Ellipse_177" data-name="Ellipse 177" cx="17" cy="17" r="17" transform="translate(911 537)" fill="rgba(117,117,122,0.18)"/>
    <path id="Ellipse_177_-_Outline" data-name="Ellipse 177 - Outline" d="M17,7A10,10,0,1,0,27,17,10,10,0,0,0,17,7m0-7A17,17,0,1,1,0,17,17,17,0,0,1,17,0Z" transform="translate(911 537)" fill="#249ad5"/>
    <circle id="Ellipse_180" data-name="Ellipse 180" cx="17" cy="17" r="17" transform="translate(860 614)" fill="rgba(117,117,122,0.18)"/>
    <path id="Ellipse_180_-_Outline" data-name="Ellipse 180 - Outline" d="M17,7A10,10,0,1,0,27,17,10,10,0,0,0,17,7m0-7A17,17,0,1,1,0,17,17,17,0,0,1,17,0Z" transform="translate(860 614)" fill="#249ad5"/>
    <circle id="Ellipse_179" data-name="Ellipse 179" cx="17" cy="17" r="17" transform="translate(843 433)" fill="rgba(117,117,122,0.18)"/>
    <path id="Ellipse_179_-_Outline" data-name="Ellipse 179 - Outline" d="M17,7A10,10,0,1,0,27,17,10,10,0,0,0,17,7m0-7A17,17,0,1,1,0,17,17,17,0,0,1,17,0Z" transform="translate(843 433)" fill="#249ad5"/>
  </g>
</svg>
