<svg xmlns="http://www.w3.org/2000/svg" width="4527.788" height="1381.781" viewBox="0 0 4527.788 1381.781">
  <g id="Logo_.2" data-name="Logo .2" transform="translate(7015.475 3526.867)">
    <g id="Group_17379" data-name="Group 17379" transform="translate(-4346.475 -3526.866)">
      <path id="Path_16852" data-name="Path 16852" d="M753.218,284.651c32.5-17.739,70.94-18.871,107.5-18.965,94.322-4.341,141.284,33.364,215.495,80.636-6.679,6.152-5.549,4.473-20.014,19-41.117,36.515-55.186,92.657-59.347,144.364-4.954,76.145,1.684,153.233,22.688,227.02,22.491,78.315,41.91,159.272,88.477,228.53-81.541,40.2-170.513,73.409-263.845,70.578-47.953.944-93.331-14.909-136.727-32.27-1.784,4.907-5.251,14.908-6.936,19.909l5.39,9.775c-16.13-20.975-130.594-261.893-114.672-476.175,5.944-57.274,57.435-222.953,71.237-253.628-2.476,13.115,11.484-2.5,9.6,10.8,32.8-18.777,47.765-11.842,81.155-29.581" transform="translate(-589.711 -47.565)" fill="#bfc2c6"/>
      <path id="Path_16853" data-name="Path 16853" d="M821.16,311.37c85.008-28.024,178.568,10.747,262.487,26.6,13.87,58.689,19.27,156.687,11.641,217.452-7.034,52.462-65.441,171.671-87.733,196.581,3.071-11.511-8.481-3.029-5.706-14.54-42.307,5.567-70.881-7.256-113.682-12.445-51.323-6.133-99.969-24.438-146.933-44.347,56.177-17.173,101.555-60.1,119.488-113.7,25.463-83.6,6.212-180.587-39.561-255.6" transform="translate(760.025 257.196)" fill="#bfc2c6"/>
      <path id="Path_16854" data-name="Path 16854" d="M696.844,508.154c71.931-59.349,130.387-132,204.2-189.183,70.742,78.5,136.926,164.934,235.608,214.093,46.963,19.909,95.609,38.214,146.933,44.347,42.8,5.19,99.216-.585,141.522-6.152-5.043,11.294-13.553,22.391-22.134,33.138-59.546,66.993-150.1,101.055-238.877,115.4-280.5,14.153-429.4-170.029-467.252-211.64" transform="translate(364.607 404.801)" fill="#0ea89b"/>
      <path id="Path_16855" data-name="Path 16855" d="M837.239,276.956c107.4-49.82,238.579-45.762,342.215,10.756,53.5,35.667,98.88,80.769,146.041,123.512,47.16,40.573,204.893,240.985,253.937,286.558,6.926,6.577,13.563,10.417,18.507,14.918-80.857,71.333-157.415,129.541-237.172,202.1-40.622-54.632-204.19-296.862-303.773-353.362-74.209-47.272-152.877-105.4-247.2-101.055-36.56.094-75,1.227-107.5,18.965-33.389,17.739-74.071,42.262-106.866,61.039,4.33-13.653,10.522-29.184,16.111-42.262,55.583-88.789,121.965-179.559,225.7-221.17" transform="translate(-538.787 -242.264)" fill="#0ea89b"/>
      <path id="Path_16856" data-name="Path 16856" d="M1716.313,327.054c53.7-23.306,210.679-78.617,363.022-34.44,47.458,13.21,86,43.4,126.325,69.257,32.992,21.324,138.312,148.043,142.573,190.976C2264.313,537,2131.9,497.771,1991.552,547.94c-80.254,33.685-152.679,82.09-221.341,133.513-73.812,57.18-132.268,129.833-204.2,189.183-32.795,25.287-166.114,135.09-209.609,172.548-55.186,39.865-322.38,176.709-544.77,76.362-77.182-48.216-154.166-105.867-196.274-185.975-3.665-5.68-13.267-25.5-16.09-31.185,43.4,17.362,111.8,44.489,159.753,43.546,93.331,2.83,182.3-30.383,263.845-70.578,46.17-20.192,88.972-47.178,124.739-81.712,61.924-52.179,121.172-107.094,178.934-163.424,79.759-72.559,165.461-138.8,246.308-210.13,41.811-38.591,92.738-66.52,143.465-93.034" transform="translate(-504.571 42.318)" fill="#c7db53"/>
      <path id="Path_16857" data-name="Path 16857" d="M980.19,500.776c0,78.542-66.858,142.213-149.32,142.213S681.54,579.318,681.54,500.776,748.4,358.564,830.87,358.564s149.32,63.671,149.32,142.212" transform="translate(228.282 738.791)" fill="#10a89b"/>
    </g>
    <g id="Group_17382" data-name="Group 17382" transform="translate(-3 84.049)">
      <text id="A_r_a_b_._F_o_r" data-name="A r a b . F o r" transform="translate(-7012.475 -2570.889)" fill="#43290a" font-size="200" font-family="TraditionalArabic-Bold, Traditional Arabic" font-weight="700" letter-spacing="0.4em"><tspan x="0" y="0">A R A B . F O R</tspan></text>
      <text id="عـــــرب_فــــــور" data-name="عـــــرب فــــــور" transform="translate(-6708.475 -3042.889)" fill="#43290a" font-size="500" font-family="Somar" font-weight="800"><tspan x="0" y="0">عـــــرب فــــــور</tspan></text>
    </g>
  </g>
</svg>
