<svg xmlns="http://www.w3.org/2000/svg" width="201.875" height="42.044" viewBox="0 0 201.875 42.044">
  <g id="Group_17778" data-name="Group 17778" transform="translate(2194.204 15643.582)">
    <g id="Group_17379" data-name="Group 17379" transform="translate(-2046.192 -15643.582)">
      <path id="Path_16852" data-name="Path 16852" d="M594.449,265.932a6.193,6.193,0,0,1,3.115-.577c2.733-.132,4.094,1.015,6.244,2.454-.193.187-.161.136-.58.578a6.581,6.581,0,0,0-1.72,4.393,21.379,21.379,0,0,0,.657,6.908,24.553,24.553,0,0,0,2.564,6.954,15.793,15.793,0,0,1-7.646,2.148,9.81,9.81,0,0,1-3.962-.982c-.052.149-.152.454-.2.606l.156.3c-.467-.638-3.784-7.969-3.323-14.489a49.439,49.439,0,0,1,2.064-7.717c-.072.4.333-.076.278.329.95-.571,1.384-.36,2.352-.9" transform="translate(-589.711 -258.718)" fill="#bfc2c6"/>
      <path id="Path_16853" data-name="Path 16853" d="M743.55,301.774c2.463-.853,5.174.327,7.606.809a23.509,23.509,0,0,1,.337,6.616,19.209,19.209,0,0,1-2.542,5.982c.089-.35-.246-.092-.165-.442a11.389,11.389,0,0,1-3.294-.379,15.273,15.273,0,0,1-4.258-1.349,5.389,5.389,0,0,0,3.462-3.46,10.293,10.293,0,0,0-1.146-7.777" transform="translate(-697.731 -284.474)" fill="#bfc2c6"/>
      <path id="Path_16854" data-name="Path 16854" d="M696.844,324.727c2.084-1.806,3.778-4.017,5.917-5.756,2.05,2.389,3.968,5.019,6.827,6.514a15.273,15.273,0,0,0,4.258,1.349,17.211,17.211,0,0,0,4.1-.187,5.005,5.005,0,0,1-.641,1.008,11.423,11.423,0,0,1-6.922,3.511c-8.128.431-12.443-5.174-13.54-6.44" transform="translate(-666.086 -296.948)" fill="#5fa59c"/>
      <path id="Path_16855" data-name="Path 16855" d="M602.435,243.32a10.743,10.743,0,0,1,9.917.327,37.8,37.8,0,0,1,4.232,3.758c1.367,1.235,5.937,7.333,7.358,8.719.2.2.393.317.536.454-2.343,2.17-4.561,3.942-6.873,6.149-1.177-1.662-5.917-9.033-8.8-10.752-2.15-1.438-4.43-3.207-7.163-3.075a6.193,6.193,0,0,0-3.115.577c-.968.54-2.146,1.286-3.1,1.857.125-.415.3-.888.467-1.286,1.611-2.7,3.534-5.464,6.54-6.73" transform="translate(-593.787 -242.264)" fill="#5fa59c"/>
      <path id="Path_16856" data-name="Path 16856" d="M631.638,277.554c1.556-.709,6.1-2.392,10.519-1.048a13.705,13.705,0,0,1,3.661,2.107c.956.649,4.008,4.5,4.131,5.811-2.432-.482-6.269-1.676-10.336-.149a30.345,30.345,0,0,0-6.414,4.062c-2.139,1.74-3.833,3.951-5.917,5.756-.95.769-4.814,4.11-6.074,5.25-1.6,1.213-9.342,5.377-15.786,2.324a15.537,15.537,0,0,1-5.687-5.659c-.106-.173-.384-.776-.466-.949a13.623,13.623,0,0,0,4.629,1.325,15.793,15.793,0,0,0,7.646-2.148,12.194,12.194,0,0,0,3.615-2.486c1.794-1.588,3.511-3.259,5.185-4.973,2.311-2.208,4.795-4.223,7.137-6.394a18.855,18.855,0,0,1,4.157-2.831" transform="translate(-596.525 -266.315)" fill="#c7db53"/>
      <path id="Path_16857" data-name="Path 16857" d="M690.194,362.891a4.327,4.327,0,1,1-4.327-4.327,4.327,4.327,0,0,1,4.327,4.327" transform="translate(-655.176 -325.174)" fill="#5fa59c"/>
    </g>
    <g id="Group_17779" data-name="Group 17779" transform="translate(-2194.204 -15639.767)">
      <g id="Group_17380" data-name="Group 17380" transform="translate(0 0)">
        <path id="Path_16858" data-name="Path 16858" d="M450.108,425.563c.086.027.128.106.128.237v2.135q0,.218-.415.218h-.969a2.843,2.843,0,0,1-1.749-.554,3.121,3.121,0,0,1-1.077-1.5,3.621,3.621,0,0,1-1.235,1.057,3.561,3.561,0,0,1-1.729.425,5.987,5.987,0,0,1-1.868-.287,4.684,4.684,0,0,1-1.532-.82,3.782,3.782,0,0,1-1.028-1.324,4.143,4.143,0,0,1-.376-1.8,5.359,5.359,0,0,1,.307-1.848,3.788,3.788,0,0,1,.929-1.443,4.266,4.266,0,0,1,1.571-.939,6.69,6.69,0,0,1,2.234-.336h4.843v4.981a5.2,5.2,0,0,0,.059.86,1.178,1.178,0,0,0,.217.543.832.832,0,0,0,.405.277,2.152,2.152,0,0,0,.642.079h.356a.971.971,0,0,1,.287.039m-7.442-9.29h-2.649V414.02h2.649Zm1.749,8.351a1.747,1.747,0,0,0,.524-1.433v-1.858H443.3a1.667,1.667,0,0,0-1.384.543,2.293,2.293,0,0,0-.435,1.473,1.5,1.5,0,0,0,1.719,1.7,1.874,1.874,0,0,0,1.216-.425m1.808-8.351h-2.669V414.02h2.669Z" transform="translate(-438.258 -410.976)" fill="#43290a"/>
        <path id="Path_16859" data-name="Path 16859" d="M477.086,442.121v-2.135q0-.2.129-.237a.967.967,0,0,1,.286-.039h2.649a1.364,1.364,0,0,0,.346-.049,1.01,1.01,0,0,0,.356-.178.935.935,0,0,0,.277-.375,1.616,1.616,0,0,0,.108-.642v-4.546H484.6v4.151a2.2,2.2,0,0,0,.119.771,1.318,1.318,0,0,0,.316.5,1.238,1.238,0,0,0,.455.277,1.56,1.56,0,0,0,.514.089h.889a.969.969,0,0,1,.287.039q.128.04.128.237v2.135q0,.218-.415.218H486a2.484,2.484,0,0,1-.751-.119,3.8,3.8,0,0,1-.712-.307,3.742,3.742,0,0,1-.622-.435,3.47,3.47,0,0,1-.484-.5,3.09,3.09,0,0,1-.8.672,5.376,5.376,0,0,1-.89.415,4.432,4.432,0,0,1-.86.217,5.232,5.232,0,0,1-.731.059H477.5q-.415,0-.415-.218m5.535,4.408h-2.649v-2.253h2.649Zm3.558,0H483.51v-2.253h2.668Z" transform="translate(-465.938 -425.161)" fill="#43290a"/>
        <path id="Path_16860" data-name="Path 16860" d="M515.589,412.965v3.993a.912.912,0,0,0,.4.84,1.792,1.792,0,0,0,.969.247,1.372,1.372,0,0,0,.88-.247,1.022,1.022,0,0,0,.306-.84V412.59h3.321v4.289a1.163,1.163,0,0,0,.247.84.82.82,0,0,0,.6.247h1.878v-5.791h3.38v8.42h-4.724a2.1,2.1,0,0,1-.583-.089,2.9,2.9,0,0,1-.593-.247,2.284,2.284,0,0,1-.514-.386,1.546,1.546,0,0,1-.346-.524h-.079a2.7,2.7,0,0,1-1.186.989,4.646,4.646,0,0,1-1.838.316,4.054,4.054,0,0,1-1.808-.366,1.8,1.8,0,0,1-.959-.939h-.079a.824.824,0,0,1-.188.326,2.656,2.656,0,0,1-.435.415,2.762,2.762,0,0,1-.613.356,1.809,1.809,0,0,1-.722.148h-2.767q-.415,0-.415-.218v-2.135q0-.2.129-.237a.967.967,0,0,1,.287-.039h1.284a.821.821,0,0,0,.6-.247,1.164,1.164,0,0,0,.247-.84v-3.913Zm3.894-4.25h-2.649v-2.254h2.649Zm1.977-3.044h-2.668v-2.253h2.668Zm1.977,3.044h-2.668v-2.254h2.668Z" transform="translate(-489.201 -403.418)" fill="#43290a"/>
        <path id="Path_16861" data-name="Path 16861" d="M581.964,442.021a10.106,10.106,0,0,1-.2,2.1,4.2,4.2,0,0,1-.662,1.581,2.983,2.983,0,0,1-1.236,1,4.624,4.624,0,0,1-1.9.346,6,6,0,0,1-.949-.079,3.792,3.792,0,0,1-.87-.237v-2.313a1.363,1.363,0,0,0,.543.208,4.06,4.06,0,0,0,.643.049.986.986,0,0,0,1.008-.623,5.754,5.754,0,0,0,.257-2.026v-8.1h3.36Z" transform="translate(-536.563 -425.16)" fill="#43290a"/>
        <path id="Path_16862" data-name="Path 16862" d="M608.778,425.563c.086.027.128.106.128.237v2.135q0,.218-.415.218h-4.527V414.02h3.38v11.5h1.146a.971.971,0,0,1,.286.039" transform="translate(-556.39 -410.976)" fill="#43290a"/>
        <path id="Path_16863" data-name="Path 16863" d="M618.217,438.93v-2.135q0-.2.128-.237a.971.971,0,0,1,.286-.039h1.9v-.079a3.987,3.987,0,0,1-.652-1.008,2.741,2.741,0,0,1-.237-1.126,4.929,4.929,0,0,1,.415-2.086,4.442,4.442,0,0,1,1.137-1.522,4.843,4.843,0,0,1,1.71-.939,7.031,7.031,0,0,1,2.155-.316,7.611,7.611,0,0,1,2.155.3,4.869,4.869,0,0,1,1.749.909,4.317,4.317,0,0,1,1.166,1.522,5,5,0,0,1,.425,2.135,4.808,4.808,0,0,1-.445,2.135,4.377,4.377,0,0,1-1.2,1.512,5.067,5.067,0,0,1-1.749.9,7.349,7.349,0,0,1-2.105.3h-6.424q-.415,0-.415-.218m5.307-2.955a2.051,2.051,0,0,0,3.054,0,2.772,2.772,0,0,0,.494-1.67,3.51,3.51,0,0,0-.119-.929,2.1,2.1,0,0,0-.365-.751,1.782,1.782,0,0,0-.632-.5,2.037,2.037,0,0,0-.9-.187,1.74,1.74,0,0,0-1.532.692,2.858,2.858,0,0,0-.484,1.68,2.811,2.811,0,0,0,.484,1.67" transform="translate(-566.55 -421.97)" fill="#43290a"/>
        <path id="Path_16864" data-name="Path 16864" d="M690.853,441.934a4.9,4.9,0,0,0,1.334-.306,2.222,2.222,0,0,0,.9-.633,1.6,1.6,0,0,0,.336-1.057,1.151,1.151,0,0,0-.751-.988,20.192,20.192,0,0,0-2.1-.909,6.678,6.678,0,0,1-1.473-.791,6.167,6.167,0,0,1-1.137-1.038,4.743,4.743,0,0,1-.741-1.186,3.121,3.121,0,0,1-.267-1.235,4.484,4.484,0,0,1,.326-1.71,3.875,3.875,0,0,1,.949-1.384,4.5,4.5,0,0,1,1.522-.919,5.883,5.883,0,0,1,2.066-.336,4.648,4.648,0,0,1,3.152,1.068,4.216,4.216,0,0,1,1.374,3.044h-2.807a2.275,2.275,0,0,0-.593-1.265,1.618,1.618,0,0,0-1.127-.376,1.486,1.486,0,0,0-1.058.475,1.879,1.879,0,0,0-.484,1.4,1.369,1.369,0,0,0,.129.563,1.837,1.837,0,0,0,.454.583,4.539,4.539,0,0,0,.9.6,9.883,9.883,0,0,0,1.443.6,10.469,10.469,0,0,1,1.75.771,3.935,3.935,0,0,1,1.068.86,2.7,2.7,0,0,1,.533.988,4.155,4.155,0,0,1,.148,1.137,3.971,3.971,0,0,1-1.848,3.469,10.154,10.154,0,0,1-5.643,1.255,10.347,10.347,0,0,1-3.786-.593,5.711,5.711,0,0,1-2.362-1.651,6.126,6.126,0,0,1-1.216-2.491,13.979,13.979,0,0,1-.365-3.113h2.827a11.541,11.541,0,0,0,.247,2.392,3.6,3.6,0,0,0,.791,1.621,3.284,3.284,0,0,0,1.5.929,8.055,8.055,0,0,0,2.382.3,15.936,15.936,0,0,0,1.621-.079m-1.818,6.483h-2.649v-2.253h2.649Zm3.558,0h-2.668v-2.253h2.668Z" transform="translate(-611.654 -421.97)" fill="#43290a"/>
        <path id="Path_16865" data-name="Path 16865" d="M738.281,437.353h5.1v-1.483a3.346,3.346,0,0,0-.534-2.105,2.005,2.005,0,0,0-1.66-.662h-2.036v-2.491h2.036a7.161,7.161,0,0,1,2.1.307,5.211,5.211,0,0,1,1.779.929,4.545,4.545,0,0,1,1.235,1.581,5.239,5.239,0,0,1,.464,2.3v4.25h-8.479Z" transform="translate(-652.144 -422.805)" fill="#43290a"/>
        <path id="Path_16866" data-name="Path 16866" d="M779.478,441a2.478,2.478,0,0,0,.988-1.848h-2.174a5.23,5.23,0,0,1-1.838-.316,4.329,4.329,0,0,1-1.473-.9,4.011,4.011,0,0,1-.969-1.423,4.916,4.916,0,0,1-.346-1.887,7.058,7.058,0,0,1,.276-2.006,4.241,4.241,0,0,1,.9-1.641,4.378,4.378,0,0,1,1.611-1.117,6.225,6.225,0,0,1,2.411-.415,6.659,6.659,0,0,1,2.412.386,3.726,3.726,0,0,1,1.591,1.137,4.775,4.775,0,0,1,.88,1.868,10.876,10.876,0,0,1,.276,2.6q0,.376-.01.563t-.03.524h1.937a.969.969,0,0,1,.286.039c.086.027.129.106.129.237v2.135q0,.218-.415.218h-2.174a5.511,5.511,0,0,1-1.917,3.518,6.715,6.715,0,0,1-4.25,1.186,5.4,5.4,0,0,1-.761-.049q-.346-.05-.6-.109-.3-.079-.554-.158v-2.372a4.764,4.764,0,0,0,.84.247,4.5,4.5,0,0,0,2.974-.415m-2.342-5.574a1.293,1.293,0,0,0,.267.6,1.259,1.259,0,0,0,.543.365,2.7,2.7,0,0,0,.919.129h1.819v-1.166a11.48,11.48,0,0,0-.079-1.423,3.611,3.611,0,0,0-.286-1.077,1.642,1.642,0,0,0-.554-.682,1.558,1.558,0,0,0-.9-.237,1.531,1.531,0,0,0-.859.227,1.676,1.676,0,0,0-.553.6,2.8,2.8,0,0,0-.3.85,5.256,5.256,0,0,0-.089.968,4.545,4.545,0,0,0,.07.84" transform="translate(-677.371 -421.97)" fill="#43290a"/>
        <path id="Path_16867" data-name="Path 16867" d="M819.391,438.011a4.114,4.114,0,0,1-.84-1.295q-.346-.8-.672-1.68t-.692-1.7a4.194,4.194,0,0,0-.9-1.334v-.356h8.322a7.838,7.838,0,0,1,1.69.168,3.276,3.276,0,0,1,1.3.583,2.708,2.708,0,0,1,.84,1.1,4.306,4.306,0,0,1,.3,1.71,4.089,4.089,0,0,1-.247,1.423,3.979,3.979,0,0,1-.919,1.364v.1h2.313a.973.973,0,0,1,.287.039c.086.026.128.106.128.237V440.5q0,.218-.415.218H815.319q-.415,0-.415-.218v-2.135c0-.132.042-.211.128-.237a.97.97,0,0,1,.287-.039h4.072Zm5.712-3.617a1.8,1.8,0,0,0-1.028-.257H820.6a1.509,1.509,0,0,1,.365.583q.148.385.3.84t.3.919a5.535,5.535,0,0,0,.346.85,2.063,2.063,0,0,0,.484.633,1.009,1.009,0,0,0,.682.247,1.921,1.921,0,0,0,1.048-.287,2.49,2.49,0,0,0,.751-.731,3.549,3.549,0,0,0,.455-1,3.891,3.891,0,0,0,.158-1.068.834.834,0,0,0-.376-.731" transform="translate(-706.768 -423.542)" fill="#43290a"/>
        <path id="Path_16868" data-name="Path 16868" d="M871.443,434.709V438.7a.912.912,0,0,0,.4.84,1.793,1.793,0,0,0,.968.247,1.37,1.37,0,0,0,.879-.247,1.02,1.02,0,0,0,.307-.84v-4.368h3.321v4.289a1.163,1.163,0,0,0,.247.84.82.82,0,0,0,.6.247h1.878v-5.792h3.38v8.42H878.7a2.1,2.1,0,0,1-.583-.089,2.91,2.91,0,0,1-.593-.247,2.282,2.282,0,0,1-.514-.386,1.543,1.543,0,0,1-.346-.524h-.079a2.7,2.7,0,0,1-1.186.989,4.653,4.653,0,0,1-1.839.316,4.061,4.061,0,0,1-1.809-.366,1.8,1.8,0,0,1-.958-.939h-.079a.82.82,0,0,1-.188.326,2.633,2.633,0,0,1-.435.415,2.747,2.747,0,0,1-.613.356,1.814,1.814,0,0,1-.721.148h-2.767q-.416,0-.415-.218v-2.135c0-.132.043-.211.128-.237a.975.975,0,0,1,.287-.039h1.285a.819.819,0,0,0,.6-.247,1.164,1.164,0,0,0,.247-.84v-3.914Z" transform="translate(-742.89 -425.161)" fill="#43290a"/>
      </g>
      <path id="Path_16899" data-name="Path 16899" d="M-1300.809-100.361l-.183-1.338h.287q.363,1.1,1.256,1.1a.837.837,0,0,0,.743-.352.644.644,0,0,0,.108-.366.869.869,0,0,0-.409-.689,7.079,7.079,0,0,0-.743-.423,3.631,3.631,0,0,1-.825-.535,1.165,1.165,0,0,1-.38-.868,1.052,1.052,0,0,1,.255-.707,1.334,1.334,0,0,1,.639-.405,1.981,1.981,0,0,1,.6-.086,2.563,2.563,0,0,1,.65.075q.441.118.467.118a.227.227,0,0,0,.161-.083h.154l.14,1.191h-.294a1.352,1.352,0,0,0-.431-.7,1.143,1.143,0,0,0-.768-.283.921.921,0,0,0-.47.118.437.437,0,0,0-.248.391.73.73,0,0,0,.4.581l.671.359a4.369,4.369,0,0,1,.972.682,1.334,1.334,0,0,1,.42.972,1.26,1.26,0,0,1-.782,1.184,1.733,1.733,0,0,1-.786.183,3.019,3.019,0,0,1-.712-.118,3.587,3.587,0,0,0-.544-.118.165.165,0,0,0-.154.118Zm17.093-1.683h-1.608l-.309.861q-.111.305-.011.427t.592.122h.093v.287h-1.948v-.287h.111a.614.614,0,0,0,.477-.2,1.521,1.521,0,0,0,.244-.477l1.256-3.506-.079-.215h1.087l1.468,3.735a1.433,1.433,0,0,0,.258.463.711.711,0,0,0,.477.2v.287H-1284v-.287h.258q.323,0,.406-.14a.5.5,0,0,0-.036-.42Zm-.169-.405-.675-1.719-.617,1.719Zm14.01,2.06a.3.3,0,0,1-.092.224.3.3,0,0,1-.217.091.3.3,0,0,1-.224-.091.3.3,0,0,1-.092-.224.334.334,0,0,1,.086-.23.269.269,0,0,1,.208-.1.319.319,0,0,1,.235.1A.315.315,0,0,1-1269.875-100.39Zm14.039.043-1.69-3.631-.161,2.616a1.992,1.992,0,0,0,0,.359.36.36,0,0,0,.169.291.946.946,0,0,0,.438.079v.287h-1.633v-.287q.5-.011.571-.287a3.356,3.356,0,0,0,.054-.492l.161-2.659a.655.655,0,0,0-.075-.434.587.587,0,0,0-.416-.126v-.287h1.55l1.432,3.086,1.374-3.086h1.583v.287l-.3.018q-.194.036-.223.158a1.529,1.529,0,0,0-.007.384l.176,2.709a3.407,3.407,0,0,0,.032.366.354.354,0,0,0,.19.287,1.426,1.426,0,0,0,.427.075v.287h-2.318v-.287h.126a.809.809,0,0,0,.431-.079.466.466,0,0,0,.136-.4q0-.122-.014-.344l-.183-2.609-1.647,3.718Zm17.347-1.7h-1.608l-.309.861q-.111.305-.011.427t.592.122h.093v.287h-1.948v-.287h.111a.614.614,0,0,0,.477-.2,1.516,1.516,0,0,0,.244-.477l1.256-3.506-.079-.215h1.087l1.468,3.735a1.437,1.437,0,0,0,.258.463.712.712,0,0,0,.477.2v.287h-2.39v-.287h.259q.323,0,.405-.14a.5.5,0,0,0-.036-.42Zm-.169-.405-.675-1.719-.617,1.719Zm14.509.161v1.12q0,.535.581.535h.219v.287h-2.573v-.287h.119a.839.839,0,0,0,.474-.1.5.5,0,0,0,.165-.434v-2.9a.585.585,0,0,0-.131-.44.671.671,0,0,0-.454-.12h-.154v-.287l.947-.057q.75-.054,1.206-.054a5.649,5.649,0,0,1,1.288.115,1.554,1.554,0,0,1,.746.395,1.142,1.142,0,0,1,.352.836q0,.89-1.087,1.184a3.7,3.7,0,0,1,.592.671q.212.291.671.836a1.383,1.383,0,0,0,.441.316,2.051,2.051,0,0,0,.531.118v.283q-.161.011-.456.011a2.907,2.907,0,0,1-1.245-.2,1.461,1.461,0,0,1-.388-.283,4.674,4.674,0,0,1-.456-.553l-.423-.585a3.021,3.021,0,0,0-.384-.405Zm0-2.426v2.117h.287a1.923,1.923,0,0,0,.983-.2.918.918,0,0,0,.42-.858q0-1.059-1.306-1.059Zm19,3.05h.294a4.948,4.948,0,0,1-.413,1.338,1.533,1.533,0,0,0-.434-.05,4.665,4.665,0,0,0-.562.066,4.714,4.714,0,0,1-.7.066,2.954,2.954,0,0,1-1.313-.294,2.467,2.467,0,0,1-1.008-.879,2.156,2.156,0,0,1-.355-1.2,2.173,2.173,0,0,1,.816-1.71,2.963,2.963,0,0,1,2-.7,2.83,2.83,0,0,1,.883.129q.51.172.527.172a.187.187,0,0,0,.147-.072h.183l.068,1.285h-.287a1.558,1.558,0,0,0-.825-1,1.535,1.535,0,0,0-.639-.133,1.645,1.645,0,0,0-1.277.542,2.03,2.03,0,0,0-.5,1.414,2.329,2.329,0,0,0,.23,1.03,1.885,1.885,0,0,0,.689.786,1.694,1.694,0,0,0,.94.276,1.552,1.552,0,0,0,.929-.294A1.866,1.866,0,0,0-1205.15-101.663Zm14.5,1.03h.1a.5.5,0,0,0,.553-.567v-1.306h-2.426v1.324a.493.493,0,0,0,.567.549h.108v.287h-2.358v-.287h.125a.476.476,0,0,0,.542-.535v-2.924a.481.481,0,0,0-.549-.538h-.118v-.287h2.358v.287h-.1q-.574,0-.574.538v1.152H-1190v-1.13a.575.575,0,0,0-.135-.438.672.672,0,0,0-.454-.122h-.065v-.287h2.35v.287h-.133a.481.481,0,0,0-.549.538v2.91a.57.57,0,0,0,.131.423.613.613,0,0,0,.432.126h.119v.287h-2.35Zm16.806-3.219a1.47,1.47,0,0,0-.115-.459.413.413,0,0,0-.391-.2h-1.611v1.654h1.191a.617.617,0,0,0,.425-.118.548.548,0,0,0,.127-.413h.294v1.464h-.294q0-.395-.237-.481a1.37,1.37,0,0,0-.427-.05h-1.08v1.324a.634.634,0,0,0,.04.273.235.235,0,0,0,.233.108h1.227a.826.826,0,0,0,.589-.179,1.1,1.1,0,0,0,.258-.571h.276l-.086,1.155h-4.424v-.287h.3q.574,0,.574-.527v-2.932a.51.51,0,0,0-.161-.441.871.871,0,0,0-.481-.1h-.072v-.287h4.048l.075,1.066Z" transform="translate(1307.509 133.977)" fill="#43290a"/>
    </g>
  </g>
</svg>
