<svg xmlns="http://www.w3.org/2000/svg" width="53.862" height="42.045" viewBox="0 0 53.862 42.045">
  <g id="favicon" transform="translate(0)">
    <path id="Path_16852" data-name="Path 16852" d="M594.449,265.932a6.193,6.193,0,0,1,3.115-.577c2.733-.132,4.094,1.015,6.244,2.454-.193.187-.161.136-.58.578a6.581,6.581,0,0,0-1.72,4.393,21.379,21.379,0,0,0,.657,6.908,24.553,24.553,0,0,0,2.564,6.954,15.793,15.793,0,0,1-7.646,2.148,9.81,9.81,0,0,1-3.962-.982c-.052.149-.152.454-.2.606l.156.3c-.467-.638-3.784-7.969-3.323-14.489a49.439,49.439,0,0,1,2.064-7.717c-.072.4.333-.076.278.329.95-.571,1.384-.36,2.352-.9" transform="translate(-589.711 -258.718)" fill="#fff"/>
    <path id="Path_16853" data-name="Path 16853" d="M743.55,301.774c2.463-.853,5.174.327,7.606.809a23.509,23.509,0,0,1,.337,6.616,19.209,19.209,0,0,1-2.542,5.982c.089-.35-.246-.092-.165-.442a11.389,11.389,0,0,1-3.294-.379,15.273,15.273,0,0,1-4.258-1.349,5.389,5.389,0,0,0,3.462-3.46,10.293,10.293,0,0,0-1.146-7.777" transform="translate(-697.731 -284.474)" fill="#fff"/>
    <path id="Path_16854" data-name="Path 16854" d="M696.844,324.727c2.084-1.806,3.778-4.017,5.917-5.756,2.05,2.389,3.968,5.019,6.827,6.514a15.273,15.273,0,0,0,4.258,1.349,17.211,17.211,0,0,0,4.1-.187,5.005,5.005,0,0,1-.641,1.008,11.423,11.423,0,0,1-6.922,3.511c-8.128.431-12.443-5.174-13.54-6.44" transform="translate(-666.086 -296.948)" fill="#5fa59c"/>
    <path id="Path_16855" data-name="Path 16855" d="M602.435,243.32a10.743,10.743,0,0,1,9.917.327,37.8,37.8,0,0,1,4.232,3.758c1.367,1.235,5.937,7.333,7.358,8.719.2.2.393.317.536.454-2.343,2.17-4.561,3.942-6.873,6.149-1.177-1.662-5.917-9.033-8.8-10.752-2.15-1.438-4.43-3.207-7.163-3.075a6.193,6.193,0,0,0-3.115.577c-.968.54-2.146,1.286-3.1,1.857.125-.415.3-.888.467-1.286,1.611-2.7,3.534-5.464,6.54-6.73" transform="translate(-593.787 -242.264)" fill="#5fa59c"/>
    <path id="Path_16856" data-name="Path 16856" d="M631.638,277.554c1.556-.709,6.1-2.392,10.519-1.048a13.705,13.705,0,0,1,3.661,2.107c.956.649,4.008,4.5,4.131,5.811-2.432-.482-6.269-1.676-10.336-.149a30.345,30.345,0,0,0-6.414,4.062c-2.139,1.74-3.833,3.951-5.917,5.756-.95.769-4.814,4.11-6.074,5.25-1.6,1.213-9.342,5.377-15.786,2.324a15.537,15.537,0,0,1-5.687-5.659c-.106-.173-.384-.776-.466-.949a13.623,13.623,0,0,0,4.629,1.325,15.793,15.793,0,0,0,7.646-2.148,12.194,12.194,0,0,0,3.615-2.486c1.794-1.588,3.511-3.259,5.185-4.973,2.311-2.208,4.795-4.223,7.137-6.394a18.855,18.855,0,0,1,4.157-2.831" transform="translate(-596.525 -266.315)" fill="#c7db53"/>
    <path id="Path_16857" data-name="Path 16857" d="M690.194,362.891a4.327,4.327,0,1,1-4.327-4.327,4.327,4.327,0,0,1,4.327,4.327" transform="translate(-655.176 -325.174)" fill="#5fa59c"/>
  </g>
</svg>
