<svg xmlns="http://www.w3.org/2000/svg" width="25" height="25" viewBox="0 0 25 25">
  <g id="Group_22911" data-name="Group 22911" transform="translate(-1323 -645)">
    <g id="_7340545_e-commerce_online_shopping_ui_package_icon" data-name="7340545_e-commerce_online_shopping_ui_package_icon" transform="translate(1322.857 642.271)">
      <path id="Path_17185" data-name="Path 17185" d="M18.448,11.027l-3.64-1.584a4.357,4.357,0,0,0-3.494,0l-3.64,1.584a1.584,1.584,0,0,0-.951,1.434v3.6a3.169,3.169,0,0,0,4.488,4.468l.1.044a4.357,4.357,0,0,0,3.494,0l3.64-1.584a1.584,1.584,0,0,0,.951-1.477V12.461A1.584,1.584,0,0,0,18.448,11.027Zm-6.777,2.115,4.817-2.115,1.477.646-3.319,1.394A3.961,3.961,0,0,1,11.671,13.142Zm-1.981.032.594.254v.725l-.594-.269Zm.721-.562,4.868-2.127.222.1-4.753,2.1-.1.044Zm1.22-2.48a3.565,3.565,0,0,1,2.646-.079L9.409,12.192l-1.252-.531ZM9.1,20.534a2.377,2.377,0,0,1-2.377-2.377,1.98,1.98,0,0,1,.036-.4,2.016,2.016,0,0,1,.1-.4v-.02A2.052,2.052,0,0,1,7.017,17l.04-.075a2.329,2.329,0,0,1,.218-.3l.067-.055a2.262,2.262,0,0,1,.281-.269,2.456,2.456,0,0,1,.289-.194.186.186,0,0,0,.036-.024,2.305,2.305,0,0,1,.733-.257h0a2.3,2.3,0,0,1,.42-.048,2.377,2.377,0,0,1,2.377,2.377,2.187,2.187,0,0,1-.02.281.657.657,0,0,1,0,.087,1.406,1.406,0,0,1-.036.186l-.024.1c-.02.063-.04.123-.063.182a.578.578,0,0,1-.028.075c-.032.079-.071.158-.111.238l-.036.055c-.036.059-.071.115-.111.17A.432.432,0,0,1,11,19.6a1.648,1.648,0,0,1-.127.154l-.044.048a2.325,2.325,0,0,1-.432.357h0A2.337,2.337,0,0,1,9.1,20.534Zm2.686-.7c.055-.091.111-.19.158-.285l.048-.1a3.716,3.716,0,0,0,.139-.368.329.329,0,0,0,0-.059,3.26,3.26,0,0,0,.075-.341.994.994,0,0,0,0-.107,2.9,2.9,0,0,0,.063-.416A3.169,3.169,0,0,0,9.1,14.988a1.982,1.982,0,0,0-.376.024H8.652a3.046,3.046,0,0,0-.741.2H7.868c-.115.051-.23.107-.341.17h0V12.461a.824.824,0,0,1,.028-.2l1.359.574v1.046a.792.792,0,0,0,.452.709l.594.269a.785.785,0,0,0,1.121-.717v-.4l.075.032a4.8,4.8,0,0,0,1.509.4v5.942a3.6,3.6,0,0,1-.911-.222Zm6.821-2.321a.792.792,0,0,1-.475.729l-3.64,1.584a3.628,3.628,0,0,1-1.034.273V14.16a4.753,4.753,0,0,0,1.505-.4l3.616-1.533a.824.824,0,0,1,.028.2Z" fill="#32c832"/>
      <path id="Path_17186" data-name="Path 17186" d="M28.85,22.308l-1.248.463a.4.4,0,1,0,.269.745l1.268-.463a.4.4,0,1,0-.269-.745Z" transform="translate(-12.956 -7.973)" fill="#32c832"/>
      <path id="Path_17187" data-name="Path 17187" d="M13.4,28a.4.4,0,0,0-.4.4v1.188a.4.4,0,0,0,.792,0V28.4A.4.4,0,0,0,13.4,28Z" transform="translate(-4.296 -11.427)" fill="#32c832"/>
      <circle id="Ellipse_224" data-name="Ellipse 224" cx="0.396" cy="0.396" r="0.396" transform="translate(8.704 18.949)" fill="#32c832"/>
    </g>
    <path id="Path_17180" data-name="Path 17180" d="M4,0H21a4,4,0,0,1,4,4V21a4,4,0,0,1-4,4H4a4,4,0,0,1-4-4V4A4,4,0,0,1,4,0Z" transform="translate(1323 645)" fill="rgba(36,213,71,0.33)"/>
  </g>
</svg>
