<svg xmlns="http://www.w3.org/2000/svg" width="25" height="25" viewBox="0 0 25 25">
  <g id="Group_22797" data-name="Group 22797" transform="translate(-242 -380)">
    <path id="Path_17190" data-name="Path 17190" d="M4,0H21a4,4,0,0,1,4,4V21a4,4,0,0,1-4,4H4a4,4,0,0,1-4-4V4A4,4,0,0,1,4,0Z" transform="translate(242 380)" fill="rgba(201,213,36,0.4)"/>
    <g id="Layer_x0020_1" transform="translate(236.71 302.84)">
      <path id="Path_17151" data-name="Path 17151" d="M13.331,85.255h3.934v-.42A3.684,3.684,0,0,1,20.94,81.16h4.725a.525.525,0,0,1,.525.525v15.7h1.583a.525.525,0,0,1,0,1.05H7.808a.525.525,0,0,1,0-1.05H9.391V89.194A3.95,3.95,0,0,1,13.331,85.255Zm8.685,12.126V95.259h-.578v2.122Zm-1.628,0V94.733a.525.525,0,0,1,.525-.525h1.628a.525.525,0,0,1,.525.525v2.648h2.073V82.21h-4.2a2.634,2.634,0,0,0-2.625,2.625V97.381ZM11.661,91.32h1.47a.525.525,0,0,1,.525.525v1.575a.525.525,0,0,1-.525.525h-1.47a.525.525,0,0,1-.525-.525V91.845A.525.525,0,0,1,11.661,91.32Zm.945,1.05h-.42V92.9h.42Zm1.969-1.05h1.47a.525.525,0,0,1,.525.525v1.575a.525.525,0,0,1-.525.525h-1.47a.525.525,0,0,1-.525-.525V91.845A.525.525,0,0,1,14.575,91.32Zm.945,1.05H15.1V92.9h.42Zm-3.859-4.28h1.47a.525.525,0,0,1,.525.525v1.575a.525.525,0,0,1-.525.525h-1.47a.525.525,0,0,1-.525-.525V88.616a.525.525,0,0,1,.525-.525Zm.945,1.05h-.42v.525h.42Zm1.969-1.05h1.47a.525.525,0,0,1,.525.525v1.575a.525.525,0,0,1-.525.525h-1.47a.525.525,0,0,1-.525-.525V88.616A.525.525,0,0,1,14.575,88.091Zm.945,1.05H15.1v.525h.42Zm3.975-3.15a.525.525,0,0,1,0-1.05h4.463a.525.525,0,0,1,0,1.05H19.5Zm0,5.776a.525.525,0,0,1,0-1.05h4.463a.525.525,0,0,1,0,1.05H19.5Zm0-2.888a.525.525,0,0,1,0-1.05h4.463a.525.525,0,0,1,0,1.05H19.5ZM17.265,86.3H13.331a2.9,2.9,0,0,0-2.89,2.889v8.187h6.824Z" fill="rgba(232,92,29,0.77)"/>
    </g>
  </g>
</svg>
