<svg xmlns="http://www.w3.org/2000/svg" width="25" height="25" viewBox="0 0 25 25">
  <g id="Group_22796" data-name="Group 22796" transform="translate(-242 -329)">
    <rect id="Rectangle_4518" data-name="Rectangle 4518" width="25" height="25" rx="4" transform="translate(242 329)" fill="rgba(173,36,213,0.33)"/>
    <path id="flag-o" d="M16.688,9.565V3.14a6.855,6.855,0,0,1-3.192.949,3.3,3.3,0,0,1-1.512-.334,15.062,15.062,0,0,0-1.919-.8A5.929,5.929,0,0,0,8.209,2.67a8.985,8.985,0,0,0-4.2,1.325v6.248A11.03,11.03,0,0,1,8.522,9.064,7.076,7.076,0,0,1,9.6,9.142a5.169,5.169,0,0,1,1.022.271q.517.193.8.323t.861.412l.292.146a2.327,2.327,0,0,0,1.053.229A6.826,6.826,0,0,0,16.688,9.565ZM2.67,1.335A1.266,1.266,0,0,1,2.487,2,1.367,1.367,0,0,1,2,2.482v13.2a.324.324,0,0,1-.094.24.327.327,0,0,1-.24.094H1a.324.324,0,0,1-.24-.094.327.327,0,0,1-.094-.24V2.482A1.366,1.366,0,0,1,.182,2,1.262,1.262,0,0,1,0,1.335,1.286,1.286,0,0,1,.391.392,1.288,1.288,0,0,1,1.335,0a1.282,1.282,0,0,1,.944.391A1.29,1.29,0,0,1,2.67,1.335ZM18.024,2V9.961a.625.625,0,0,1-.365.595q-.1.052-.177.094a8.6,8.6,0,0,1-3.849,1.21,3.637,3.637,0,0,1-1.648-.365l-.292-.146q-.667-.344-1.033-.5c-.244-.1-.949-.3-.949-.3A9.115,9.115,0,0,0,8.521,10.4a7.982,7.982,0,0,0-2.456.459,11.493,11.493,0,0,0-2.383,1.063.656.656,0,0,1-.344.094A.741.741,0,0,1,3,11.933a.639.639,0,0,1-.334-.584V3.609a.65.65,0,0,1,.323-.574q.365-.219.819-.443T5,2.05a9.223,9.223,0,0,1,1.592-.516,7.216,7.216,0,0,1,1.617-.2,7.121,7.121,0,0,1,2.18.323,16.13,16.13,0,0,1,2.18.9,2.051,2.051,0,0,0,.928.2A6.788,6.788,0,0,0,16.73,1.586l.323-.177a.635.635,0,0,1,.647.021A.65.65,0,0,1,18.024,2Z" transform="translate(245 333)" fill="#af00d8"/>
  </g>
</svg>
