<svg xmlns="http://www.w3.org/2000/svg" width="35" height="35" viewBox="0 0 35 35">
  <g id="Group_22921" data-name="Group 22921" transform="translate(-1323 -167)">
    <rect id="Rectangle_4516" data-name="Rectangle 4516" width="35" height="35" rx="4" transform="translate(1323 167)" fill="rgba(36,154,213,0.33)"/>
    <path id="grid" d="M1.5,3.75A2.25,2.25,0,0,1,3.75,1.5h4.5A2.25,2.25,0,0,1,10.5,3.75v4.5A2.25,2.25,0,0,1,8.25,10.5H3.75A2.25,2.25,0,0,1,1.5,8.25ZM3.75,3A.75.75,0,0,0,3,3.75v4.5A.75.75,0,0,0,3.75,9h4.5A.75.75,0,0,0,9,8.25V3.75A.75.75,0,0,0,8.25,3Zm9.75.75A2.25,2.25,0,0,1,15.75,1.5h4.5A2.25,2.25,0,0,1,22.5,3.75v4.5a2.25,2.25,0,0,1-2.25,2.25h-4.5A2.25,2.25,0,0,1,13.5,8.25ZM15.75,3a.75.75,0,0,0-.75.75v4.5a.75.75,0,0,0,.75.75h4.5A.75.75,0,0,0,21,8.25V3.75A.75.75,0,0,0,20.25,3ZM1.5,15.75A2.25,2.25,0,0,1,3.75,13.5h4.5a2.25,2.25,0,0,1,2.25,2.25v4.5A2.25,2.25,0,0,1,8.25,22.5H3.75A2.25,2.25,0,0,1,1.5,20.25ZM3.75,15a.75.75,0,0,0-.75.75v4.5a.75.75,0,0,0,.75.75h4.5A.75.75,0,0,0,9,20.25v-4.5A.75.75,0,0,0,8.25,15Zm9.75.75a2.25,2.25,0,0,1,2.25-2.25h4.5a2.25,2.25,0,0,1,2.25,2.25v4.5a2.25,2.25,0,0,1-2.25,2.25h-4.5a2.25,2.25,0,0,1-2.25-2.25ZM15.75,15a.75.75,0,0,0-.75.75v4.5a.75.75,0,0,0,.75.75h4.5a.75.75,0,0,0,.75-.75v-4.5a.75.75,0,0,0-.75-.75Z" transform="translate(1328.5 172.5)" fill="#249ad5"/>
  </g>
</svg>
