<svg xmlns="http://www.w3.org/2000/svg" width="25" height="25" viewBox="0 0 25 25">
  <g id="Group_22912" data-name="Group 22912" transform="translate(-1323 -704)">
    <g id="Group_22928" data-name="Group 22928">
      <g id="Group_22927" data-name="Group 22927">
        <path id="Path_17190" data-name="Path 17190" d="M4,0H21a4,4,0,0,1,4,4V21a4,4,0,0,1-4,4H4a4,4,0,0,1-4-4V4A4,4,0,0,1,4,0Z" transform="translate(1323 704)" fill="rgba(98,232,223,0.48)"/>
        <g id="Group_22926" data-name="Group 22926">
          <g id="ios-log-out" transform="translate(1323.625 704.375)">
            <path id="Path_17159" data-name="Path 17159" d="M14.746,16.824a.574.574,0,0,0-.6.537.739.739,0,0,1-.775.691H5.356a.739.739,0,0,1-.775-.691V7.389A.739.739,0,0,1,5.356,6.7h8.011a.739.739,0,0,1,.775.691.607.607,0,0,0,1.205,0,1.882,1.882,0,0,0-1.981-1.764H5.356A1.882,1.882,0,0,0,3.375,7.389v9.972a1.882,1.882,0,0,0,1.981,1.764h8.011a1.882,1.882,0,0,0,1.981-1.764.574.574,0,0,0-.6-.537Z" transform="translate(0)" fill="#0accf5"/>
            <path id="Path_17160" data-name="Path 17160" d="M20.093,10.971a.676.676,0,0,0-.426-.143.664.664,0,0,0-.426.143.425.425,0,0,0,0,.692l2.808,2.243H11.01a.5.5,0,1,0,0,.978H22.061l-2.739,2.24a.43.43,0,0,0,0,.692l0,0a.707.707,0,0,0,.422.136.656.656,0,0,0,.426-.143l3.558-2.879a.6.6,0,0,0,0-1.02l-3.639-2.941Z" transform="translate(-4.165 -2.016)" fill="#00c5ee"/>
          </g>
        </g>
      </g>
    </g>
  </g>
</svg>
