<svg id="mail" xmlns="http://www.w3.org/2000/svg" width="66.571" height="46.682" viewBox="0 0 66.571 46.682">
  <path id="mail-2" data-name="mail" d="M26.732,21.171a3.3,3.3,0,0,1-2.016-.555L1.13,4.647A2.4,2.4,0,0,1,.617,1.006,3.265,3.265,0,0,1,4.811.561L26.734,15.4,48.656.561a3.275,3.275,0,0,1,4.2.445,2.4,2.4,0,0,1-.516,3.641L28.754,20.616a3.292,3.292,0,0,1-1.848.559C26.847,21.175,26.789,21.174,26.732,21.171Z" transform="translate(6.616 6.137)" fill="#43290a"/>
  <path id="Path_20" data-name="Path 20" d="M58.183,4.191c-9.578-.277-18.8-.246-47.531-.133A10.683,10.683,0,0,0,0,14.709v25.3A10.683,10.683,0,0,0,10.651,50.657H55.919A10.683,10.683,0,0,0,66.571,40.006v-25.3A10.728,10.728,0,0,0,58.183,4.191Zm1.731,35.815A4.006,4.006,0,0,1,55.919,44H10.651a4.006,4.006,0,0,1-3.994-3.994v-25.3a4.006,4.006,0,0,1,3.994-3.994H55.919a4.006,4.006,0,0,1,3.994,3.994Z" transform="translate(0 -3.975)" fill="#111"/>
</svg>
