<svg id="marker" xmlns="http://www.w3.org/2000/svg" width="42.18" height="60.378" viewBox="0 0 42.18 60.378">
  <path id="Path_9" data-name="Path 9" d="M30.972,42.18a2.983,2.983,0,0,0,4.1-1.205C38.926,33.5,42.18,25.79,42.18,21.09A21.09,21.09,0,0,0,0,21.09c0,9.039,13.136,30.129,18.921,37.962a3.193,3.193,0,0,0,2.651,1.326,3.544,3.544,0,0,0,2.772-1.446c1.326-1.808,2.892-4.339,4.7-7.351a3.114,3.114,0,0,0-1.085-4.218h0a3.053,3.053,0,0,0-3.977,1.085c-.844,1.326-1.567,2.651-2.41,3.856C14.7,42.3,6.026,26.754,6.026,21.09a15.064,15.064,0,0,1,30.129,0c0,3.374-2.772,10.123-6.387,17.113a2.947,2.947,0,0,0,1.205,3.977Z" transform="translate(0 0)" fill="#111"/>
  <path id="Path_10" data-name="Path 10" d="M19.244,15.026a4.218,4.218,0,1,1-4.218,4.218,4.27,4.27,0,0,1,4.218-4.218m0-6.026A10.244,10.244,0,1,0,29.487,19.244,10.235,10.235,0,0,0,19.244,9Z" transform="translate(1.846 1.846)" fill="#43290a"/>
</svg>
