<svg xmlns="http://www.w3.org/2000/svg" width="25" height="25" viewBox="0 0 25 25">
  <g id="Group_22922" data-name="Group 22922" transform="translate(-1323 -645)">
    <path id="Path_17188" data-name="Path 17188" d="M4,0H21a4,4,0,0,1,4,4V21a4,4,0,0,1-4,4H4a4,4,0,0,1-4-4V4A4,4,0,0,1,4,0Z" transform="translate(1323 645)" fill="rgba(19,43,138,0.41)"/>
    <g id="layer1" transform="translate(1327.325 650.471)">
      <path id="path1913" d="M5.9.53l-.039,0A.765.765,0,0,0,5.67.578a7.864,7.864,0,1,0,10.1,10.089.763.763,0,1,0-1.434-.524A6.336,6.336,0,1,1,6.2,2.011.764.764,0,0,0,5.9.53ZM8.984.551A1.464,1.464,0,0,0,7.4,2.011l.01,6.168a.764.764,0,0,0,.768.761l6.086.01a1.5,1.5,0,0,0,1.5-1.624A7.636,7.636,0,0,0,8.984.551Z" transform="translate(0)" fill="#2a47b5"/>
    </g>
  </g>
</svg>
