<svg xmlns="http://www.w3.org/2000/svg" width="28" height="28" viewBox="0 0 28 28">
  <g id="Group_22925" data-name="Group 22925" transform="translate(-242 -535)">
    <rect id="Rectangle_4522" data-name="Rectangle 4522" width="28" height="28" rx="4" transform="translate(242 535)" fill="rgba(238,86,86,0.4)"/>
    <g id="_4230530_market_market_store_shop_store_icon" data-name="4230530_market_market store_shop_store_icon" transform="translate(245.946 541.006)">
      <path id="Path_17153" data-name="Path 17153" d="M59.143,129h-2.72a.424.424,0,0,0-.423.423v2.236a.424.424,0,0,0,.423.423h2.72a.424.424,0,0,0,.423-.423v-2.236A.424.424,0,0,0,59.143,129Zm-.423,2.236H56.838v-1.39H58.72Z" transform="translate(-51.752 -120.919)" fill="#e82d2d"/>
      <path id="Path_17154" data-name="Path 17154" d="M110.543,129h-2.72a.424.424,0,0,0-.423.423v2.236a.424.424,0,0,0,.423.423h2.72a.424.424,0,0,0,.423-.423v-2.236A.424.424,0,0,0,110.543,129Zm-.423,2.236h-1.882v-1.39h1.882Z" transform="translate(-98.714 -120.919)" fill="#e82d2d"/>
      <path id="Path_17155" data-name="Path 17155" d="M162.043,129h-2.72a.424.424,0,0,0-.423.423v2.236a.424.424,0,0,0,.423.423h2.72a.424.424,0,0,0,.423-.423v-2.236A.424.424,0,0,0,162.043,129Zm-.423,2.236h-1.882v-1.39h1.882Z" transform="translate(-145.767 -120.919)" fill="#e82d2d"/>
      <path id="Path_17156" data-name="Path 17156" d="M27.674,40.175l-1.485-4.481a.425.425,0,0,0-.4-.294H8.74a.407.407,0,0,0-.4.294L6.849,40.175a.378.378,0,0,0-.052.2.431.431,0,0,0,.423.432,2.317,2.317,0,0,1,1.537.622c.06.06.13.121.2.181l-.009,9.359a.447.447,0,0,0,.121.3.431.431,0,0,0,.3.121H25.153a.424.424,0,0,0,.423-.423V41.6a1.636,1.636,0,0,0,.181-.164,2.387,2.387,0,0,1,1.554-.63.435.435,0,0,0,.414-.432A.52.52,0,0,0,27.674,40.175ZM24.73,50.535H9.793v-1.7H24.721Zm0-2.538H9.793L9.8,42.048a2.545,2.545,0,0,0,.725.112,2.489,2.489,0,0,0,1.77-.734,2.334,2.334,0,0,1,3.186.009,2.544,2.544,0,0,0,3.557,0,2.343,2.343,0,0,1,3.186-.009A2.474,2.474,0,0,0,24,42.16a2.653,2.653,0,0,0,.734-.112Zm.44-7.175a1.691,1.691,0,0,1-.181.155.493.493,0,0,0-.138.095,1.641,1.641,0,0,1-2.029-.25,3.219,3.219,0,0,0-4.369,0,1.78,1.78,0,0,1-1.191.492,1.722,1.722,0,0,1-1.2-.492,3.211,3.211,0,0,0-2.2-.855,3.054,3.054,0,0,0-2.167.863,1.639,1.639,0,0,1-1.166.484,1.691,1.691,0,0,1-.838-.224.429.429,0,0,0-.164-.112,1.45,1.45,0,0,1-.181-.155A3.165,3.165,0,0,0,7.8,40.028l1.252-3.773H25.481l1.252,3.773A3.113,3.113,0,0,0,25.17,40.822Z" transform="translate(-6.797 -35.4)" fill="#e82d2d"/>
    </g>
  </g>
</svg>
