<svg id="phone" xmlns="http://www.w3.org/2000/svg" width="58.971" height="58.97" viewBox="0 0 58.971 58.97">
  <g id="Calling" transform="translate(0 0)">
    <path id="Fill_1" data-name="Fill 1" d="M5.629,18.316c-1.6-3.543-1.706-6.191-.214-8.255.961-1.6,5.322-5.777,7.274-5.686a2.627,2.627,0,0,1,1.39.857A55.32,55.32,0,0,1,20.426,13.6c.153.729-.208,1.411-.863,2.554-.872,1.525-2.065,3.613-1.06,6.4a30.325,30.325,0,0,0,10.4,13.5,2.159,2.159,0,0,0,3.029-.507,2.2,2.2,0,0,0-.5-3.053,25.934,25.934,0,0,1-8.869-11.507c-.264-.726,0-1.3.77-2.645A7.769,7.769,0,0,0,24.679,12.7c-.46-2.234-6.2-9.264-7.566-10.6A6.652,6.652,0,0,0,12.969.012C7.812-.329,2.3,6.792,1.8,7.637c-2.363,3.249-2.4,7.454-.127,12.49a2.164,2.164,0,0,0,2.875,1.085,2.194,2.194,0,0,0,1.077-2.9" transform="translate(0 0.618)" fill="#1c1d20"/>
    <path id="Fill_3" data-name="Fill 3" d="M39.573,8.813c-2.823-.586-5.047.811-6.669,1.837l-.678.423a2.2,2.2,0,0,0-.741,3,2.167,2.167,0,0,0,2.98.747l.753-.472c1.462-.924,2.412-1.478,3.344-1.289,1.17.443,6.764,4.707,8.432,6.427a2.9,2.9,0,0,1,.84,1.295c.078,2.257-4.259,6.593-5.783,7.526-1.955,1.411-4.587,1.309-8.122-.341C25.193,24.309,11.468,11.933,3.96.948A2.165,2.165,0,0,0,.94.382,2.2,2.2,0,0,0,.384,3.424c8.038,11.766,22.34,24.589,31.8,28.549a16.18,16.18,0,0,0,6.773,1.715,9.059,9.059,0,0,0,5.441-1.7c.817-.472,7.963-6.089,7.775-11.457a6.7,6.7,0,0,0-2.07-4.094c-1.332-1.376-8.31-7.159-10.526-7.62" transform="translate(5.737 25.283)" fill="#1c1d20"/>
    <path id="Fill_5" data-name="Fill 5" d="M10.172,12.8A2.176,2.176,0,0,0,12.3,14.566a2.271,2.271,0,0,0,.42-.038,2.188,2.188,0,0,0,1.717-2.566A14.985,14.985,0,0,0,2.588.033,2.208,2.208,0,0,0,.04,1.762,2.19,2.19,0,0,0,1.757,4.328,10.635,10.635,0,0,1,10.172,12.8" transform="translate(34.238 10.342)" fill="#43290a"/>
    <path id="Fill_7" data-name="Fill 7" d="M2.414.018a2.164,2.164,0,0,0-2.4,1.93,2.185,2.185,0,0,0,1.92,2.415A20.874,20.874,0,0,1,20.4,22.941a2.178,2.178,0,0,0,2.154,1.942,2.366,2.366,0,0,0,.246-.015,2.179,2.179,0,0,0,1.914-2.417A25.2,25.2,0,0,0,2.414.018" transform="translate(34.238)" fill="#43290a"/>
  </g>
</svg>
