<svg xmlns="http://www.w3.org/2000/svg" width="25" height="25" viewBox="0 0 25 25">
  <g id="Group_22921" data-name="Group 22921" transform="translate(-242 -490)">
    <path id="Path_17189" data-name="Path 17189" d="M4,0H21a4,4,0,0,1,4,4V21a4,4,0,0,1-4,4H4a4,4,0,0,1-4-4V4A4,4,0,0,1,4,0Z" transform="translate(242 490)" fill="rgba(255,196,32,0.34)"/>
    <path id="_5746970_cruise_ship_tourism_transport_travel_icon" data-name="5746970_cruise_ship_tourism_transport_travel_icon" d="M72.624,80.954a.272.272,0,0,0-.266-.1c-.011,0-.255.043-.659.072V78.13a.273.273,0,0,0-.1-.213l-.958-.762v-2.6a.273.273,0,0,0-.1-.209l-.933-.782-.8-5.4a.274.274,0,0,0-.073-.148L67.673,66.9a.272.272,0,0,0-.323-.054l-1.11.578a.273.273,0,0,0-.147.242v2.943l-1.608-1.348-.757-4.485a.272.272,0,0,0-.1-.166l-1.3-1.06a.273.273,0,0,0-.3-.029l-1,.53a.273.273,0,0,0-.145.241v3.1H55.52a.273.273,0,0,0-.273.273V69.76h-.88a.273.273,0,0,0-.273.273v1.353a8.631,8.631,0,0,0-2.2-.324.273.273,0,0,0-.266.273,14.782,14.782,0,0,0,3.6,9.261l-1.922,2.276a.273.273,0,0,0,.208.449H71.468a.273.273,0,0,0,.245-.153l.938-1.928A.273.273,0,0,0,72.624,80.954ZM66.638,67.837l.782-.407.857.9.7,4.706-2.34-1.961Zm-5.206-3.376.692-.368,1.082.881.634,3.752-1.509-1.265a.274.274,0,0,0-.175-.064h-.724Zm-5.639,3.483h6.264l8.036,6.736V76.72l-8.667-6.9a.274.274,0,0,0-.17-.059H55.793Zm-1.152,2.362h6.52l9.993,7.956v2.687a12.186,12.186,0,0,1-1.527-.058V79.336a.273.273,0,0,0-.106-.216l-7.857-6.057a.273.273,0,0,0-.439.216v2.184q-.63-.572-1.243-1.049V73.279a.273.273,0,0,0-.273-.273H58.017a.263.263,0,0,0-.072.015,15.44,15.44,0,0,0-3.3-1.48V70.306Zm14.44,9.164v1.354a10.678,10.678,0,0,1-1.333-.285v-2.1ZM67.2,78.022v2.343a8.827,8.827,0,0,1-1.5-.684v-2.82Zm-2.05-1.581v2.9a7.9,7.9,0,0,1-1.422-1.252s0,0,0,0V75.345Zm-1.967-1.517v2.539q-.712-.811-1.415-1.489V73.833Zm-3.75-1.373V74c-.217-.158-.432-.309-.644-.45ZM71.3,82.774H54.108l1.7-2.009a.273.273,0,0,0-.011-.365,14.6,14.6,0,0,1-3.612-8.782c1.18.083,6.042.783,10.971,6.64a8.445,8.445,0,0,0,2.119,1.806.265.265,0,0,0,.059.034,9.456,9.456,0,0,0,2.012.886.266.266,0,0,0,.117.036,11.335,11.335,0,0,0,1.8.376.271.271,0,0,0,.1.02c.009,0,.017,0,.026-.005a12.737,12.737,0,0,0,2.028.074c.006,0,.012,0,.018,0a.256.256,0,0,0,.028-.006c.185-.009.349-.021.488-.034Z" transform="translate(192.367 429.506)" fill="#fc913e"/>
  </g>
</svg>
