<svg xmlns="http://www.w3.org/2000/svg" width="26.664" height="26.383" viewBox="0 0 26.664 26.383">
  <g id="Group_22798" data-name="Group 22798" transform="translate(-240 -434)">
    <g id="Group_22922" data-name="Group 22922">
      <rect id="Rectangle_4520" data-name="Rectangle 4520" width="25" height="25" rx="4" transform="translate(241 435)" fill="rgba(0,131,190,0.43)"/>
      <path id="_7490088_travel_plane_adventure_vacation_icon" data-name="7490088_travel_plane_adventure_vacation_icon" d="M12.562,24.035H10.477a.309.309,0,0,1-.284-.431l2.868-6.69H9.6L6.968,19.138a.312.312,0,0,1-.2.073H5.389A.309.309,0,0,1,5.1,18.8L6.44,15.084,5.1,11.369a.309.309,0,0,1,.291-.415h1.38a.311.311,0,0,1,.2.073l2.637,2.227h3.456L10.193,6.561a.309.309,0,0,1,.284-.431h2.085a.307.307,0,0,1,.244.119l5.48,7.006h3.533c2.7,0,3.052,1.7,3.066,1.772a.305.305,0,0,1,0,.117c-.014.072-.37,1.772-3.066,1.772H18.286l-5.48,7A.307.307,0,0,1,12.562,24.035Zm-1.615-.618h1.464l5.48-7a.308.308,0,0,1,.244-.119h3.684c1.916,0,2.359-.963,2.441-1.212-.083-.252-.525-1.212-2.441-1.212H18.134a.308.308,0,0,1-.244-.119l-5.48-7.006H10.946l2.868,6.693a.309.309,0,0,1-.284.431H9.492a.31.31,0,0,1-.2-.073L6.655,11.572H5.83l1.23,3.406a.308.308,0,0,1,0,.211l-1.23,3.4h.825l2.637-2.224a.311.311,0,0,1,.2-.073H13.53a.309.309,0,0,1,.284.431Z" transform="matrix(0.777, -0.629, 0.629, 0.777, 232.195, 444.9)" fill="#0076ff"/>
    </g>
  </g>
</svg>
