<svg xmlns="http://www.w3.org/2000/svg" width="25" height="25" viewBox="0 0 25 25">
  <g id="Group_22799" data-name="Group 22799" transform="translate(-244 -588)">
    <rect id="Rectangle_4524" data-name="Rectangle 4524" width="25" height="25" rx="4" transform="translate(244 588)" fill="rgba(80,80,80,0.3)"/>
    <g id="delivery-in" transform="translate(245 589.5)">
      <path id="Path_17157" data-name="Path 17157" d="M19.245,7.724H15.971v-1.4A2.336,2.336,0,0,0,13.631,4a.465.465,0,1,0,0,.931,1.4,1.4,0,0,1,1.4,1.4v7.96A2.339,2.339,0,0,0,13.21,16.1H7.5a2.338,2.338,0,0,0-4.564-.065,1.4,1.4,0,0,1-1-1.332V6.327a1.4,1.4,0,0,1,1.4-1.4.465.465,0,1,0,0-.931A2.336,2.336,0,0,0,1,6.327v8.378A2.331,2.331,0,0,0,2.914,16.99a2.339,2.339,0,0,0,4.589.043h5.708a2.342,2.342,0,0,0,4.584,0h2.386a1.4,1.4,0,0,0,1.4-1.4V10.051a2.336,2.336,0,0,0-2.339-2.327ZM5.21,17.964a1.4,1.4,0,1,1,1.4-1.4,1.4,1.4,0,0,1-1.4,1.4Zm10.292,0a1.4,1.4,0,1,1,1.4-1.4A1.4,1.4,0,0,1,15.5,17.964Zm5.146-2.327a.468.468,0,0,1-.468.465H17.8a2.34,2.34,0,0,0-1.825-1.815v-3.5a4.2,4.2,0,0,0,3.275,1.589h1.4Zm0-4.189h-1.4A3.276,3.276,0,0,1,16,8.655h3.242a1.4,1.4,0,0,1,1.4,1.4Z" transform="translate(0 0.044)" fill="#747474"/>
      <path id="Path_17158" data-name="Path 17158" d="M11.191,8.234,9.56,9.865a.545.545,0,0,1-.77,0L7.159,8.234a.544.544,0,1,1,.769-.769l.7.7V4.044a.544.544,0,1,1,1.087,0V8.168l.7-.7a.544.544,0,1,1,.769.769Z" transform="translate(-0.588 0)" fill="#747474"/>
    </g>
  </g>
</svg>
