<svg xmlns="http://www.w3.org/2000/svg" width="28" height="28" viewBox="0 0 28 28">
  <g id="Group_22921" data-name="Group 22921" transform="translate(-1021.358 -92)">
    <rect id="Rectangle_4528" data-name="Rectangle 4528" width="28" height="28" rx="4" transform="translate(1021.358 92)" fill="rgba(36,213,71,0.33)"/>
    <path id="people" d="M16.375,16.1a1.069,1.069,0,0,0,1.092-1.092c0-1.092-1.092-4.367-5.458-4.367S6.55,13.917,6.55,15.009A1.069,1.069,0,0,0,7.642,16.1ZM7.666,15.009l-.024,0a3.35,3.35,0,0,1,.83-1.878,4.369,4.369,0,0,1,3.537-1.393,4.375,4.375,0,0,1,3.537,1.393A3.361,3.361,0,0,1,16.375,15l-.009,0-.015,0Zm4.343-6.55a2.183,2.183,0,1,0-1.544-.639A2.183,2.183,0,0,0,12.009,8.458Zm3.275-2.183a3.275,3.275,0,1,1-.959-2.316,3.276,3.276,0,0,1,.959,2.316ZM7.572,10.947a6.424,6.424,0,0,0-1.343-.27q-.384-.037-.771-.036C1.092,10.642,0,13.917,0,15.009A.965.965,0,0,0,1.092,16.1h4.6a2.443,2.443,0,0,1-.236-1.092,5.01,5.01,0,0,1,1.19-3.17A5.777,5.777,0,0,1,7.572,10.947Zm-2.2.786a6,6,0,0,0-1,3.275H1.092a3.35,3.35,0,0,1,.83-1.882,4.338,4.338,0,0,1,3.45-1.392ZM1.638,6.821A3.275,3.275,0,1,1,2.6,9.137a3.275,3.275,0,0,1-.959-2.316ZM4.913,4.638a2.183,2.183,0,1,0,1.544.639A2.183,2.183,0,0,0,4.913,4.638Z" transform="translate(1026.625 96.45)" fill="#2eba67"/>
  </g>
</svg>
