<svg xmlns="http://www.w3.org/2000/svg" width="25" height="25" viewBox="0 0 25 25">
  <g id="Group_22795" data-name="Group 22795" transform="translate(-242 -272)">
    <rect id="Rectangle_4517" data-name="Rectangle 4517" width="25" height="25" rx="4" transform="translate(242 272)" fill="rgba(238,86,86,0.33)"/>
    <path id="people" d="M13.663,13.93a.892.892,0,0,0,.911-.911c0-.911-.911-3.643-4.554-3.643s-4.554,2.733-4.554,3.643a.892.892,0,0,0,.911.911ZM6.4,13.019l-.02,0a2.8,2.8,0,0,1,.692-1.567,3.645,3.645,0,0,1,2.951-1.162,3.651,3.651,0,0,1,2.951,1.162,2.8,2.8,0,0,1,.692,1.567l-.007,0-.013,0Zm3.623-5.465a1.822,1.822,0,1,0-1.288-.534A1.822,1.822,0,0,0,10.019,7.554Zm2.733-1.822a2.733,2.733,0,1,1-.8-1.932,2.733,2.733,0,0,1,.8,1.932Zm-6.434,3.9A5.359,5.359,0,0,0,5.2,9.406q-.321-.031-.643-.03C.911,9.376,0,12.108,0,13.019a.8.8,0,0,0,.911.911h3.84a2.039,2.039,0,0,1-.2-.911,4.18,4.18,0,0,1,.993-2.645A4.82,4.82,0,0,1,6.318,9.631Zm-1.836.656a5,5,0,0,0-.838,2.733H.911a2.8,2.8,0,0,1,.692-1.57,3.619,3.619,0,0,1,2.878-1.161Zm-3.115-4.1a2.733,2.733,0,1,1,.8,1.932,2.733,2.733,0,0,1-.8-1.932ZM4.1,4.366A1.822,1.822,0,1,0,5.387,4.9,1.822,1.822,0,0,0,4.1,4.366Z" transform="translate(247 276)" fill="#e82d2d"/>
  </g>
</svg>
