<svg xmlns="http://www.w3.org/2000/svg" width="167" height="102.311" viewBox="0 0 167 102.311">
  <g id="rate" transform="translate(-35 -35)">
    <path id="Background" d="M46,70a7,7,0,0,1,0-14H7A7,7,0,1,1,7,42H47a7,7,0,0,0,0-14H22a7,7,0,0,1,0-14H62A7,7,0,0,1,62,0h98a7,7,0,1,1,0,14H120a7,7,0,1,1,0,14h22a7,7,0,0,1,0,14H131.826C126.951,42,123,45.134,123,49s6,7,6,7a7,7,0,0,1,0,14ZM153,35a7,7,0,1,1,7,7A7,7,0,0,1,153,35Z" transform="translate(35 63)" fill="#599174"/>
    <path id="line" d="M1,24.181Zm0-24Z" transform="translate(140 85)" fill="none" stroke="#007036" stroke-linecap="round" stroke-linejoin="round" stroke-miterlimit="10" stroke-width="2.5"/>
    <path id="ground_line" d="M114.128.5ZM87,.5ZM13,.5ZM.128.5Z" transform="translate(67 135)" fill="none" stroke="#007036" stroke-linecap="round" stroke-linejoin="round" stroke-miterlimit="10" stroke-width="2.5"/>
    <g id="Iconly_Two-tone_Star" data-name="Iconly/Two-tone/Star" transform="translate(82.5 50.673)">
      <g id="Star" transform="translate(3.003 3.508)">
        <path id="Stroke_1" data-name="Stroke 1" d="M48.451,3.217l8.767,17.519a5.892,5.892,0,0,0,4.443,3.186l19.616,2.821a5.806,5.806,0,0,1,3.268,9.938L70.36,50.309a5.758,5.758,0,0,0-1.7,5.158l3.359,19.242a5.892,5.892,0,0,1-8.575,6.142L45.922,71.768a5.988,5.988,0,0,0-5.5,0L22.89,80.856a5.888,5.888,0,0,1-8.57-6.142l3.359-19.242a5.758,5.758,0,0,0-1.7-5.158L1.782,36.686a5.806,5.806,0,0,1,3.268-9.938l19.616-2.821a5.9,5.9,0,0,0,4.448-3.186L37.894,3.217a5.945,5.945,0,0,1,10.557,0Z" transform="translate(-0.003 -0.008)" fill="#fff" stroke="#007036" stroke-linecap="round" stroke-linejoin="round" stroke-miterlimit="10" stroke-width="3"/>
      </g>
    </g>
    <circle id="Oval" cx="5.5" cy="5.5" r="5.5" transform="translate(122 107)" fill="none" stroke="#007036" stroke-miterlimit="10" stroke-width="2.5"/>
    <path id="Line-2" data-name="Line" d="M0,10.722,7,5.229,0,0" transform="translate(112 90.278)" fill="none" stroke="#007036" stroke-linecap="round" stroke-linejoin="round" stroke-miterlimit="10" stroke-width="2.5"/>
    <path id="Line-3" data-name="Line" d="M0,10.722-7,5.229,0,0" transform="translate(143 90.278)" fill="none" stroke="#007036" stroke-linecap="round" stroke-linejoin="round" stroke-miterlimit="10" stroke-width="2.5"/>
    <circle id="Oval-2" data-name="Oval" cx="3" cy="3" r="3" transform="translate(155 36)" fill="none" stroke="#007036" stroke-miterlimit="10" stroke-width="2"/>
    <circle id="Oval-3" data-name="Oval" cx="3" cy="3" r="3" transform="translate(186 52)" fill="#007036"/>
    <path id="Line_5" data-name="Line 5" d="M4.6,4.6.481,8.712,4.6,4.6.354.354,4.6,4.6,8.839.354,4.6,4.6,8.712,8.712Z" transform="translate(165.404 49.404)" fill="none" stroke="#007036" stroke-linecap="round" stroke-linejoin="round" stroke-miterlimit="10" stroke-width="2.5"/>
    <path id="Line_4" data-name="Line 4" d="M3,3,0,6,3,3,0,0,3,3,6,0,3,3,6,6Z" transform="translate(71.404 67.596)" fill="none" stroke="#007036" stroke-linecap="round" stroke-linejoin="round" stroke-miterlimit="10" stroke-width="2.5"/>
    <circle id="Oval-4" data-name="Oval" cx="3" cy="3" r="3" transform="translate(82 55)" fill="#007036"/>
    <path id="Line-4" data-name="Line" d="M0,10.722-7,5.229,0,0" transform="translate(143 90.278)" fill="none" stroke="#007036" stroke-linecap="round" stroke-linejoin="round" stroke-miterlimit="10" stroke-width="2.5"/>
  </g>
</svg>
